<svg xmlns="http://www.w3.org/2000/svg" viewBox="0 0 376.39 126"><defs><style>.cls-1{fill:#333;}</style></defs><title>Logo 2</title><g id="Layer_2" data-name="Layer 2"><path class="cls-1" d="M314.45,42.44h-4.18V58.57h3.6a7.82,7.82,0,0,0,4.25-1,5.14,5.14,0,0,0,2.12-2.81,14,14,0,0,0,.62-4.43,10.61,10.61,0,0,0-1.37-5.83Q318.11,42.45,314.45,42.44Z"/><path class="cls-1" d="M93.34,43.09a3.87,3.87,0,0,0-3-1,3.65,3.65,0,0,0-2.81,1,5,5,0,0,0-1.23,2.56,18,18,0,0,0-.28,3.27V77a20.25,20.25,0,0,0,.25,3.24,5,5,0,0,0,1.15,2.6,3.74,3.74,0,0,0,2.92,1,3.87,3.87,0,0,0,3-1,5.09,5.09,0,0,0,1.22-2.6A18.16,18.16,0,0,0,94.85,77V48.92a18,18,0,0,0-.29-3.27A5,5,0,0,0,93.34,43.09Z"/><path class="cls-1" d="M311.06,7.46,288.54,9.87a256.3,256.3,0,0,1-43.8.93l-40.4-2.59L125.7,11.07q-9.93.36-19.87-.07L64.57,9.19C32.67,9.41,7,34.07,7.2,64.27h0c.21,30.2,26.24,54.5,58.14,54.27l75.94-5.42a388.09,388.09,0,0,1,55.51,0l53.48,4.44a213.31,213.31,0,0,0,25.66.59l35.89-1.35c31.9-.22,57.59-24.88,57.37-55.08h0C369,31.53,343,7.23,311.06,7.46ZM69,92.12H42.72V33.8H55.61V83.41H69Zm39-18.36a28.85,28.85,0,0,1-1.66,10.3,12.78,12.78,0,0,1-5.51,6.62Q97,93,90.39,93T80,90.68a12.86,12.86,0,0,1-5.48-6.62,28.86,28.86,0,0,1-1.65-10.3V52.09A28.46,28.46,0,0,1,74.54,41.8,12.72,12.72,0,0,1,80,35.28Q83.83,33,90.39,33t10.47,2.27a12.63,12.63,0,0,1,5.51,6.52A28.45,28.45,0,0,1,108,52.09Zm44.78,18.36H141.58l-5-35.2-4.68,35.2H120.55l-7-58.32h10.94l3.46,34,4.39-33.91h8.57l4.6,33.69L149,33.8h10.8Zm33.62,0-1.94-12.31h-8.57l-2,12.31H161.74l11-58.32h14.69l10.87,58.32Zm41.62-48.74h-8.71V92.12h-13V43.38h-8.79V33.8h30.46Zm32,0h-8.71V92.12h-13V43.38h-8.79V33.8h30.46Zm31.46,48.74H265.2V33.8h26.21v8.79H278.09V57.06h10.15V66H278.09V83.41h13.46Zm28.8,0L313.94,66h-3.67V92.12H297.38V33.8h16.06a35.92,35.92,0,0,1,10.22,1.3,12.35,12.35,0,0,1,6.73,4.64c1.61,2.24,2.42,5.39,2.42,9.47a31.64,31.64,0,0,1-.58,6.41,11.92,11.92,0,0,1-2.12,4.86,11.71,11.71,0,0,1-4.43,3.42l8,28.22Z"/><polygon class="cls-1" points="177.07 72.11 183.27 72.11 180.17 49.36 177.07 72.11"/></g></svg>