<svg id="Layer_1" data-name="Layer 1" xmlns="http://www.w3.org/2000/svg" viewBox="0 0 317 126"><defs><style>.cls-1{fill:#333;}</style></defs><title>Logo 1</title><path class="cls-1" d="M19.67,112.22V35.62H32.26v66.56H304v10Z"/><path class="cls-1" d="M60.69,94.81q-6.55,0-10.37-2.31a12.85,12.85,0,0,1-5.47-6.62,28.63,28.63,0,0,1-1.66-10.3V53.91a28.23,28.23,0,0,1,1.66-10.29,12.7,12.7,0,0,1,5.47-6.52q3.82-2.26,10.37-2.27T71.17,37.1a12.66,12.66,0,0,1,5.5,6.52,28.23,28.23,0,0,1,1.66,10.29V75.58a28.63,28.63,0,0,1-1.66,10.3,12.81,12.81,0,0,1-5.5,6.62Q67.32,94.81,60.69,94.81Zm0-9.15a3.86,3.86,0,0,0,3-1,5.18,5.18,0,0,0,1.23-2.6,18.16,18.16,0,0,0,.28-3.24V50.74a18,18,0,0,0-.28-3.27,5.12,5.12,0,0,0-1.23-2.56,3.86,3.86,0,0,0-3-1,3.67,3.67,0,0,0-2.81,1,5,5,0,0,0-1.22,2.56,18,18,0,0,0-.29,3.27V78.82a20.25,20.25,0,0,0,.25,3.24,5,5,0,0,0,1.15,2.6A3.75,3.75,0,0,0,60.69,85.66Z"/><path class="cls-1" d="M90.86,93.94,83.8,35.62h11l3.45,34,4.39-33.91h8.57l4.61,33.69,3.53-33.77h10.8l-7,58.32H111.88l-5-35.2-4.68,35.2Z"/><path class="cls-1" d="M132,93.94l11-58.32h14.69l10.87,58.32H156.74l-2-12.31h-8.56l-2,12.31Zm15.34-20h6.19l-3.1-22.75Z"/><path class="cls-1" d="M176.68,93.94V24.63h-157V15.06H304v9.57H189.64V93.94Z"/><path class="cls-1" d="M208.72,93.94V45.2h-8.78V35.62h30.45V45.2h-8.71V93.94Z"/><path class="cls-1" d="M235.5,93.94V35.62h26.21v8.79H248.39V58.88h10.15v8.93H248.39V85.23h13.47v8.71Z"/><path class="cls-1" d="M267.69,93.94V35.62h16.05A35.94,35.94,0,0,1,294,36.92a12.39,12.39,0,0,1,6.73,4.64c1.61,2.24,2.41,5.39,2.41,9.47a31.64,31.64,0,0,1-.58,6.41,11.92,11.92,0,0,1-2.12,4.86A11.63,11.63,0,0,1,296,65.72l8,28.22H290.65l-6.4-26.13h-3.68V93.94Zm12.88-33.55h3.6a7.82,7.82,0,0,0,4.25-1,5.16,5.16,0,0,0,2.13-2.81,14.32,14.32,0,0,0,.61-4.43,10.63,10.63,0,0,0-1.37-5.83q-1.37-2.09-5-2.09h-4.18Z"/></svg>