<svg id="Colored" xmlns="http://www.w3.org/2000/svg" viewBox="0 0 306.2883 141.6116"><polygon points="11.651 109.105 11.651 32.507 24.245 32.507 24.245 99.059 43.705 99.059 43.705 109.105 11.651 109.105" fill="#2d302d"/><rect x="54.0454" y="99.0594" width="199.2319" height="10.0452" fill="#2d302d"/><rect x="259.3203" y="99.0594" width="3.3013" height="10.0452" fill="#2d302d"/><polygon points="294.638 99.059 263.872 99.059 263.872 109.105 282.285 109.105 282.285 111.767 291.955 111.767 291.955 109.105 294.638 109.105 294.638 99.059" fill="#2d302d"/><path d="M48.8023,93.0191q-6.4819,0-10.2671-2.33A12.9568,12.9568,0,0,1,33.11,84.026a29.3653,29.3653,0,0,1-1.6382-10.377V51.6583A29.0714,29.0714,0,0,1,33.11,41.318a12.6173,12.6173,0,0,1,5.4253-6.5538q3.7851-2.2559,10.2671-2.2573,6.5544,0,10.3769,2.294a12.7565,12.7565,0,0,1,5.4615,6.5537,28.7648,28.7648,0,0,1,1.6386,10.3037V73.649a29.3671,29.3671,0,0,1-1.6386,10.377,12.9063,12.9063,0,0,1-5.4615,6.663Q55.356,93.0182,48.8023,93.0191Zm0-8.665a4.7771,4.7771,0,0,0,3.4228-1.0557,5.3058,5.3058,0,0,0,1.4561-2.8408,19.0936,19.0936,0,0,0,.3642-3.8223v-27.89a18.5735,18.5735,0,0,0-.3642-3.7866,5.2882,5.2882,0,0,0-1.4561-2.8037A4.7812,4.7812,0,0,0,48.8023,41.1a4.55,4.55,0,0,0-3.2769,1.0557,5.2819,5.2819,0,0,0-1.456,2.8037,18.5029,18.5029,0,0,0-.3643,3.7866v27.89a21.1708,21.1708,0,0,0,.3276,3.8223,5.1074,5.1074,0,0,0,1.42,2.8408A4.6594,4.6594,0,0,0,48.8023,84.3541Z" fill="#2d302d"/><path d="M79.6045,92.2183l-7.646-58.9834H82.1534L86.231,69.28l5.17-35.9717h8.083l5.3882,35.8994,4.0781-35.9727H119l-7.5727,58.9834H101.232L95.479,54.8619,90.0176,92.2183Z" fill="#4bb98b"/><path d="M120.9659,92.2183l11.4326-58.9834h13.3257l11.36,58.9834H145.9429l-2.1118-12.9619H134.51L132.253,92.2183Zm14.6367-20.3164h7.0634L139.0977,48.09Z" fill="#4bb98b"/><path d="M165.6045,92.2183V42.192h-9.102V33.2349h30.1469V42.192h-8.9565V92.2183Z" fill="#4bb98b"/><path d="M201.0664,92.2183V42.192h-9.102V33.2349h30.147V42.192h-8.9566V92.2183Z" fill="#4bb98b"/><path d="M227.4263,92.2183V33.2349h25.7051v8.3018h-13.69V57.192h10.5591v8.374H239.4414V84.0621h13.836v8.1562Z" fill="#2d302d"/><path d="M259.32,92.2183V33.2349h15.292a34.1955,34.1955,0,0,1,10.2315,1.3472,11.9438,11.9438,0,0,1,6.5537,4.77q2.294,3.4234,2.2934,9.4663a30.13,30.13,0,0,1-.6186,6.4439,12.4422,12.4422,0,0,1-2.1846,4.8789,10.7443,10.7443,0,0,1-4.4057,3.3135l8.1557,28.7636H282.3316l-6.7725-26.7246h-4.2236V92.2183ZM271.3355,58.357h3.4956a9.3535,9.3535,0,0,0,4.5874-.9463,5.1884,5.1884,0,0,0,2.3667-2.876,14.2539,14.2539,0,0,0,.6919-4.77,10.88,10.88,0,0,0-1.4927-6.2261q-1.4934-2.1474-5.5708-2.1484h-4.0781Z" fill="#2d302d"/><path d="M287.12,118.3237c-2.4663,3.6015-4.0515,5.8544-4.0515,8.0443a4.0524,4.0524,0,0,0,8.103,0C291.1715,124.1781,289.5864,121.9252,287.12,118.3237Z" fill="#4bb98b"/></svg>