<svg width="431" height="456" viewBox="0 0 431 456" fill="none" xmlns="http://www.w3.org/2000/svg">
<clipPath clipPathUnits="objectBoundingBox" id="clippie3">
<path fill-rule="evenodd" clip-rule="evenodd" d="M0.496,0.001 C0.66,-0.012,0.78,0.135,0.876,0.261 C0.964,0.377,1,0.514,0.991,0.653 C0.959,0.794,0.854,0.914,0.713,0.971 C0.578,1,0.429,0.996,0.296,0.936 C0.163,0.877,0.026,0.789,0.003,0.652 C-0.02,0.521,0.107,0.425,0.189,0.317 C0.281,0.194,0.337,0.014,0.496,0.001" fill="url(#paint0_linear)"/>
</clipPath>
<path fill-rule="evenodd" clip-rule="evenodd" d="M213.659 0.377678C284.581 -5.64575 336.371 61.5849 377.732 119.191C415.691 172.057 440.984 234.276 427.188 297.769C413.206 362.124 368.148 416.686 307.404 442.881C249.333 467.923 184.754 454.06 127.63 426.949C70.194 399.69 11.3896 359.999 1.15546 297.536C-8.63751 237.766 46.0376 193.716 81.3301 144.365C121.197 88.6162 145.118 6.19894 213.659 0.377678Z" fill="url(#paint0_linear)"/>
<defs>
<linearGradient id="paint0_linear" x1="-1.6045e-06" y1="228" x2="412.927" y2="314.387" gradientUnits="userSpaceOnUse">
<stop stop-color="#4BB98B"/>
<stop offset="1" stop-color="#4DD996"/>
</linearGradient>
</defs>
</svg>
