<svg width="405" height="457" viewBox="0 0 405 457" fill="none" xmlns="http://www.w3.org/2000/svg">
<clipPath clipPathUnits="objectBoundingBox" id="clippie4">
<path fill-rule="evenodd" clip-rule="evenodd" d="M0.559,0.001 C0.709,0.01,0.841,0.091,0.929,0.197 C1,0.289,0.987,0.407,0.99,0.52 C0.992,0.637,1,0.764,0.946,0.857 C0.856,0.957,0.705,1,0.559,1 C0.416,0.997,0.29,0.93,0.189,0.842 C0.087,0.754,0.011,0.645,0.002,0.52 C-0.009,0.386,0.03,0.248,0.135,0.15 C0.243,0.049,0.401,-0.008,0.559,0.001" fill="url(#paint0_linear)"/>
</clipPath>
<path fill-rule="evenodd" clip-rule="evenodd" d="M226.388 0.446937C287.057 4.47816 340.734 41.5778 376.372 90.0354C407.233 131.998 399.62 185.775 400.767 237.552C401.958 291.275 416.703 349.307 383.055 391.641C346.74 437.329 285.336 458.232 226.388 456.944C168.609 455.682 117.637 424.902 76.5289 384.946C35.1293 344.707 4.61538 294.667 0.668291 237.552C-3.56178 176.342 12.0372 113.443 54.6709 68.6593C98.5326 22.5852 162.361 -3.80753 226.388 0.446937Z" fill="url(#paint0_linear)"/>
<defs>
<linearGradient id="paint0_linear" x1="-1.5077e-06" y1="228.5" x2="389.994" y2="305" gradientUnits="userSpaceOnUse">
<stop stop-color="#4BB98B"/>
<stop offset="1" stop-color="#4DD996"/>
</linearGradient>
</defs>
</svg>
