<svg width="603" height="539" viewBox="0 0 603 539" fill="none" xmlns="http://www.w3.org/2000/svg">
<path fill-rule="evenodd" clip-rule="evenodd" d="M295.616 1.71293C341.65 4.77872 384.731 18.7274 424.384 42.2847C467.689 68.0108 505.551 99.9167 532.501 142.441C566.809 196.574 617.302 256.387 598.987 317.788C580.692 379.118 499.197 390.347 447.342 427.929C395.536 465.476 359.081 529.364 295.616 537.659C229.515 546.298 165.205 511.893 112.012 471.756C59.558 432.176 7.91155 380.33 0.621519 315.069C-6.32778 252.859 46.6763 203.397 75.8459 147.996C99.1196 103.793 112.13 51.9549 153.737 24.2602C194.588 -2.93065 246.636 -1.54905 295.616 1.71293Z" fill="#4DD996"/>
</svg>
