<svg preserveAspectRatio="none" width="1440" height="369" viewBox="0 0 1440 369" fill="none" xmlns="http://www.w3.org/2000/svg">
<path fill-rule="evenodd" clip-rule="evenodd" d="M0 43L60 72C120 100 240 158 360 172C480 187 600 158 720 129C840 100 960 72 1080 50C1200 28 1320 14 1380 7L1440 0V302H1380C1320 302 1200 302 1080 302C960 302 840 302 720 302C600 302 480 302 360 302C240 302 120 302 60 302H0V43Z" fill="#C8EDFF"/>
<path fill-rule="evenodd" clip-rule="evenodd" d="M0 265.987L60 223.972C120 181.957 240 97.9263 360 73.9176C480 49.909 600 85.922 720 109.931C840 133.939 960 145.944 1080 151.946C1200 157.948 1320 157.948 1380 157.948H1440V302H1380C1320 302 1200 302 1080 302C960 302 840 302 720 302C600 302 480 302 360 302C240 302 120 302 60 302H0V265.987Z" fill="#4BB98B"/>
<path fill-rule="evenodd" clip-rule="evenodd" d="M1440 318.171L1380 332.056C1320 345.942 1200 373.713 1080 368.313C960 362.913 840 323.956 720 315.471C600 307.371 480 329.356 360 335.142C240 340.542 120 329.356 60 323.956L0 318.171V285H60C120 285 240 285 360 285C480 285 600 285 720 285C840 285 960 285 1080 285C1200 285 1320 285 1380 285H1440V318.171Z" fill="#4BB98B"/>
</svg>
