<svg preserveAspectRatio="none" width="1440" height="420" viewBox="0 0 1440 420" fill="none" xmlns="http://www.w3.org/2000/svg">
<path d="M60 126L0 108V353.868L60 367.533C63.5528 368.305 67.3159 369.127 71.2769 369.993C134.211 383.747 247.106 408.42 360 416.601C480 425.296 600 416.601 720 398.588C753.6 393.545 787.2 387.82 820.8 382.095C907.2 367.373 993.6 352.651 1080 349.52C1196.84 345.287 1313.68 362.251 1375.13 371.174C1376.8 371.416 1378.42 371.651 1380 371.88L1440 380.576V0L1380 30C1320 60 1200 120 1080 144C1000 160 920 160 840 160C800 160 760 160 720 162C675 164.25 630 169.031 585 173.812C510 181.781 435 189.75 360 186C240 180 120 144 60 126Z" fill="#4DD996"/>
</svg>
