<svg preserveAspectRatio="none" width="1440" height="671" viewBox="0 0 1440 671" fill="none" xmlns="http://www.w3.org/2000/svg">
<path d="M60 93.8522L0 86.8632V654.734L48 643.518C49.0444 643.29 50.1116 643.057 51.201 642.819C100.178 632.121 194.089 611.609 288 622.581C326.4 626.768 364.8 636.22 403.2 645.671C460.8 659.848 518.4 674.026 576 670.436C633.778 667.286 691.556 646.531 749.333 625.775C787.556 612.045 825.778 598.314 864 589.68C960 568.744 1056 579.212 1152 595.662C1238.22 609.765 1324.44 628.693 1375.88 639.987C1381.72 641.268 1387.11 642.451 1392 643.518L1440 654.734V0L1380 14.9764C1378.06 15.4282 1376.06 15.8957 1374 16.3773C1312.24 30.796 1196.12 57.9088 1080 57.9088C1026.46 57.9088 972.923 52.1453 919.385 46.3819C852.923 39.2272 786.462 32.0726 720 35.9434C653.731 39.803 587.463 54.9287 521.194 70.0543C467.463 82.3184 413.731 94.5824 360 100.841C240 114.819 120 100.841 60 93.8522Z" fill="url(#paint0_linear)"/>
<defs>
<linearGradient id="paint0_linear" x1="-5.36073e-06" y1="335.5" x2="1174.9" y2="893.588" gradientUnits="userSpaceOnUse">
<stop stop-color="#4BB98B"/>
<stop offset="1" stop-color="#4DD996"/>
</linearGradient>
</defs>
</svg>
