<svg preserveAspectRatio="none" width="1440" height="930" viewBox="0 0 1440 930" fill="none" xmlns="http://www.w3.org/2000/svg">
<rect y="711" width="1440" height="219" fill="#2D302D"/>
<path d="M60 119.448L0 110.553V833.297L48 819.022C49.0444 818.733 50.1116 818.436 51.201 818.133C100.178 804.518 194.089 778.411 288 792.376C326.4 797.705 364.8 809.734 403.2 821.763C460.8 839.807 518.4 857.851 576 853.283C633.778 849.273 691.556 822.857 749.333 796.441C787.556 778.966 825.778 761.49 864 750.502C960 723.856 1056 737.179 1152 758.116C1238.22 776.065 1324.44 800.154 1375.88 814.529C1381.72 816.159 1387.11 817.665 1392 819.022L1440 833.297V0L1380 19.0609C1378.06 19.6359 1376.06 20.2309 1374 20.8439C1312.24 39.1949 1196.12 73.7021 1080 73.7021C1026.46 73.7021 972.923 66.3668 919.385 59.0315C852.923 49.9256 786.462 40.8196 720 45.7461C653.731 50.6583 587.463 69.9092 521.194 89.16C467.463 104.769 413.731 120.378 360 128.343C240 146.134 120 128.343 60 119.448Z" fill="url(#paint0_linear)"/>
<defs>
<linearGradient id="paint0_linear" x1="-5.36073e-06" y1="427" x2="1263.94" y2="898.729" gradientUnits="userSpaceOnUse">
<stop stop-color="#4BB98B"/>
<stop offset="1" stop-color="#4DD996"/>
</linearGradient>
</defs>
</svg>
