<svg preserveAspectRatio="none" width="1440" height="462" viewBox="0 0 1440 462" fill="none" xmlns="http://www.w3.org/2000/svg">
<rect y="108" width="1440" height="354" fill="#2D302D"/>
<path fill-rule="evenodd" clip-rule="evenodd" d="M1440 0L1380 3.05556C1320 6.11111 1200 12.2222 1080 27.5C960 42.7778 840 67.2222 720 58.0556C600 48.8889 480 6.11111 360 3.05556C233 -0.178241 120 36.6667 60 55L0 73.3333V110H60C120 110 240 110 360 110C480 110 603 110 723 110C843 110 936.5 110 1056.5 110C1080 110 1320 110 1380 110H1440V0Z" fill="#2D302D"/>
</svg>
