<svg preserveAspectRatio="none" width="1370" height="344" viewBox="0 0 1370 344" fill="none" xmlns="http://www.w3.org/2000/svg">
<path fill-rule="evenodd" clip-rule="evenodd" d="M0.170275 88.851L57.2886 139.738C114.405 189.625 228.64 290.399 342.745 326.173C456.851 361.947 570.829 332.722 684.778 289.496C798.728 246.27 912.647 188.045 1026.61 151.819C1140.57 115.593 1254.58 101.367 1311.58 94.2544L1368.59 86.1416L1368.42 0.141741L1311.4 0.254633C1254.38 0.367524 1140.35 0.593307 1026.31 0.81909C912.277 1.04487 798.242 1.27066 684.208 1.49644C570.173 1.72222 456.139 1.948 342.104 2.17379C228.069 2.39957 114.035 2.62535 57.0173 2.73824L0 2.85114L0.170275 88.851Z" fill="#4DD996"/>
</svg>
