<svg width="83" height="597" viewBox="0 0 83 597" fill="none" xmlns="http://www.w3.org/2000/svg">
<circle cx="10.5" cy="10.5" r="10.5" fill="#4DD996"/>
<circle cx="46.5" cy="10.5" r="10.5" fill="#4DD996"/>
<circle cx="82.5" cy="10.5" r="10.5" fill="#4DD996"/>
<circle cx="10.5" cy="46.5" r="10.5" fill="#4DD996"/>
<circle cx="46.5" cy="46.5" r="10.5" fill="#4DD996"/>
<circle cx="82.5" cy="46.5" r="10.5" fill="#4DD996"/>
<circle cx="10.5" cy="82.5" r="10.5" fill="#4DD996"/>
<circle cx="46.5" cy="82.5" r="10.5" fill="#4DD996"/>
<circle cx="82.5" cy="82.5" r="10.5" fill="#4DD996"/>
<circle cx="10.5" cy="118.5" r="10.5" fill="#4DD996"/>
<circle cx="46.5" cy="118.5" r="10.5" fill="#4DD996"/>
<circle cx="82.5" cy="118.5" r="10.5" fill="#4DD996"/>
<circle cx="10.5" cy="154.5" r="10.5" fill="#4DD996"/>
<circle cx="46.5" cy="154.5" r="10.5" fill="#4DD996"/>
<circle cx="82.5" cy="154.5" r="10.5" fill="#4DD996"/>
<circle cx="10.5" cy="190.5" r="10.5" fill="#4DD996"/>
<circle cx="46.5" cy="190.5" r="10.5" fill="#4DD996"/>
<circle cx="82.5" cy="190.5" r="10.5" fill="#4DD996"/>
<circle cx="10.5" cy="226.5" r="10.5" fill="#4DD996"/>
<circle cx="46.5" cy="226.5" r="10.5" fill="#4DD996"/>
<circle cx="82.5" cy="226.5" r="10.5" fill="#4DD996"/>
<circle cx="10.5" cy="262.5" r="10.5" fill="#4DD996"/>
<circle cx="46.5" cy="262.5" r="10.5" fill="#4DD996"/>
<circle cx="82.5" cy="262.5" r="10.5" fill="#4DD996"/>
<circle cx="10.5" cy="298.5" r="10.5" fill="#4DD996"/>
<circle cx="46.5" cy="298.5" r="10.5" fill="#4DD996"/>
<circle cx="82.5" cy="298.5" r="10.5" fill="#4DD996"/>
<circle cx="10.5" cy="334.5" r="10.5" fill="#4DD996"/>
<circle cx="46.5" cy="334.5" r="10.5" fill="#4DD996"/>
<circle cx="82.5" cy="334.5" r="10.5" fill="#4DD996"/>
<circle cx="10.5" cy="370.5" r="10.5" fill="#4DD996"/>
<circle cx="46.5" cy="370.5" r="10.5" fill="#4DD996"/>
<circle cx="82.5" cy="370.5" r="10.5" fill="#4DD996"/>
<circle cx="10.5" cy="406.5" r="10.5" fill="#4DD996"/>
<circle cx="46.5" cy="406.5" r="10.5" fill="#4DD996"/>
<circle cx="82.5" cy="406.5" r="10.5" fill="#4DD996"/>
<circle cx="10.5" cy="442.5" r="10.5" fill="#4DD996"/>
<circle cx="46.5" cy="442.5" r="10.5" fill="#4DD996"/>
<circle cx="82.5" cy="442.5" r="10.5" fill="#4DD996"/>
<circle cx="10.5" cy="478.5" r="10.5" fill="#4DD996"/>
<circle cx="46.5" cy="478.5" r="10.5" fill="#4DD996"/>
<circle cx="82.5" cy="478.5" r="10.5" fill="#4DD996"/>
<circle cx="10.5" cy="514.5" r="10.5" fill="#4DD996"/>
<circle cx="46.5" cy="514.5" r="10.5" fill="#4DD996"/>
<circle cx="82.5" cy="514.5" r="10.5" fill="#4DD996"/>
<circle cx="10.5" cy="550.5" r="10.5" fill="#4DD996"/>
<circle cx="46.5" cy="550.5" r="10.5" fill="#4DD996"/>
<circle cx="82.5" cy="550.5" r="10.5" fill="#4DD996"/>
<circle cx="10.5" cy="586.5" r="10.5" fill="#4DD996"/>
<circle cx="46.5" cy="586.5" r="10.5" fill="#4DD996"/>
<circle cx="82.5" cy="586.5" r="10.5" fill="#4DD996"/>
</svg>
