<svg width="360" height="235" viewBox="0 0 360 235" fill="none" xmlns="http://www.w3.org/2000/svg">
<circle cx="5" cy="5" r="5" fill="#164449"/>
<circle cx="30" cy="5" r="5" fill="#164449"/>
<circle cx="55" cy="5" r="5" fill="#164449"/>
<circle cx="80" cy="5" r="5" fill="#164449"/>
<circle cx="105" cy="5" r="5" fill="#164449"/>
<circle cx="130" cy="5" r="5" fill="#164449"/>
<circle cx="155" cy="5" r="5" fill="#164449"/>
<circle cx="180" cy="5" r="5" fill="#164449"/>
<circle cx="205" cy="5" r="5" fill="#164449"/>
<circle cx="230" cy="5" r="5" fill="#164449"/>
<circle cx="255" cy="5" r="5" fill="#164449"/>
<circle cx="280" cy="5" r="5" fill="#164449"/>
<circle cx="305" cy="5" r="5" fill="#164449"/>
<circle cx="330" cy="5" r="5" fill="#164449"/>
<circle cx="355" cy="5" r="5" fill="#164449"/>
<circle cx="5" cy="30" r="5" fill="#164449"/>
<circle cx="30" cy="30" r="5" fill="#164449"/>
<circle cx="55" cy="30" r="5" fill="#164449"/>
<circle cx="80" cy="30" r="5" fill="#164449"/>
<circle cx="105" cy="30" r="5" fill="#164449"/>
<circle cx="130" cy="30" r="5" fill="#164449"/>
<circle cx="155" cy="30" r="5" fill="#164449"/>
<circle cx="180" cy="30" r="5" fill="#164449"/>
<circle cx="205" cy="30" r="5" fill="#164449"/>
<circle cx="230" cy="30" r="5" fill="#164449"/>
<circle cx="255" cy="30" r="5" fill="#164449"/>
<circle cx="280" cy="30" r="5" fill="#164449"/>
<circle cx="305" cy="30" r="5" fill="#164449"/>
<circle cx="330" cy="30" r="5" fill="#164449"/>
<circle cx="355" cy="30" r="5" fill="#164449"/>
<circle cx="5" cy="55" r="5" fill="#164449"/>
<circle cx="30" cy="55" r="5" fill="#164449"/>
<circle cx="55" cy="55" r="5" fill="#164449"/>
<circle cx="80" cy="55" r="5" fill="#164449"/>
<circle cx="105" cy="55" r="5" fill="#164449"/>
<circle cx="130" cy="55" r="5" fill="#164449"/>
<circle cx="155" cy="55" r="5" fill="#164449"/>
<circle cx="180" cy="55" r="5" fill="#164449"/>
<circle cx="205" cy="55" r="5" fill="#164449"/>
<circle cx="230" cy="55" r="5" fill="#164449"/>
<circle cx="255" cy="55" r="5" fill="#164449"/>
<circle cx="280" cy="55" r="5" fill="#164449"/>
<circle cx="305" cy="55" r="5" fill="#164449"/>
<circle cx="330" cy="55" r="5" fill="#164449"/>
<circle cx="355" cy="55" r="5" fill="#164449"/>
<circle cx="5" cy="80" r="5" fill="#164449"/>
<circle cx="30" cy="80" r="5" fill="#164449"/>
<circle cx="55" cy="80" r="5" fill="#164449"/>
<circle cx="80" cy="80" r="5" fill="#164449"/>
<circle cx="105" cy="80" r="5" fill="#164449"/>
<circle cx="130" cy="80" r="5" fill="#164449"/>
<circle cx="155" cy="80" r="5" fill="#164449"/>
<circle cx="180" cy="80" r="5" fill="#164449"/>
<circle cx="205" cy="80" r="5" fill="#164449"/>
<circle cx="230" cy="80" r="5" fill="#164449"/>
<circle cx="255" cy="80" r="5" fill="#164449"/>
<circle cx="280" cy="80" r="5" fill="#164449"/>
<circle cx="305" cy="80" r="5" fill="#164449"/>
<circle cx="330" cy="80" r="5" fill="#164449"/>
<circle cx="355" cy="80" r="5" fill="#164449"/>
<circle cx="5" cy="105" r="5" fill="#164449"/>
<circle cx="30" cy="105" r="5" fill="#164449"/>
<circle cx="55" cy="105" r="5" fill="#164449"/>
<circle cx="80" cy="105" r="5" fill="#164449"/>
<circle cx="105" cy="105" r="5" fill="#164449"/>
<circle cx="130" cy="105" r="5" fill="#164449"/>
<circle cx="155" cy="105" r="5" fill="#164449"/>
<circle cx="180" cy="105" r="5" fill="#164449"/>
<circle cx="205" cy="105" r="5" fill="#164449"/>
<circle cx="230" cy="105" r="5" fill="#164449"/>
<circle cx="255" cy="105" r="5" fill="#164449"/>
<circle cx="280" cy="105" r="5" fill="#164449"/>
<circle cx="305" cy="105" r="5" fill="#164449"/>
<circle cx="330" cy="105" r="5" fill="#164449"/>
<circle cx="355" cy="105" r="5" fill="#164449"/>
<circle cx="5" cy="130" r="5" fill="#164449"/>
<circle cx="30" cy="130" r="5" fill="#164449"/>
<circle cx="55" cy="130" r="5" fill="#164449"/>
<circle cx="80" cy="130" r="5" fill="#164449"/>
<circle cx="105" cy="130" r="5" fill="#164449"/>
<circle cx="130" cy="130" r="5" fill="#164449"/>
<circle cx="155" cy="130" r="5" fill="#164449"/>
<circle cx="180" cy="130" r="5" fill="#164449"/>
<circle cx="205" cy="130" r="5" fill="#164449"/>
<circle cx="230" cy="130" r="5" fill="#164449"/>
<circle cx="255" cy="130" r="5" fill="#164449"/>
<circle cx="280" cy="130" r="5" fill="#164449"/>
<circle cx="305" cy="130" r="5" fill="#164449"/>
<circle cx="330" cy="130" r="5" fill="#164449"/>
<circle cx="355" cy="130" r="5" fill="#164449"/>
<circle cx="5" cy="155" r="5" fill="#164449"/>
<circle cx="30" cy="155" r="5" fill="#164449"/>
<circle cx="55" cy="155" r="5" fill="#164449"/>
<circle cx="80" cy="155" r="5" fill="#164449"/>
<circle cx="105" cy="155" r="5" fill="#164449"/>
<circle cx="130" cy="155" r="5" fill="#164449"/>
<circle cx="155" cy="155" r="5" fill="#164449"/>
<circle cx="180" cy="155" r="5" fill="#164449"/>
<circle cx="205" cy="155" r="5" fill="#164449"/>
<circle cx="230" cy="155" r="5" fill="#164449"/>
<circle cx="255" cy="155" r="5" fill="#164449"/>
<circle cx="280" cy="155" r="5" fill="#164449"/>
<circle cx="305" cy="155" r="5" fill="#164449"/>
<circle cx="330" cy="155" r="5" fill="#164449"/>
<circle cx="355" cy="155" r="5" fill="#164449"/>
<circle cx="5" cy="180" r="5" fill="#164449"/>
<circle cx="30" cy="180" r="5" fill="#164449"/>
<circle cx="55" cy="180" r="5" fill="#164449"/>
<circle cx="80" cy="180" r="5" fill="#164449"/>
<circle cx="105" cy="180" r="5" fill="#164449"/>
<circle cx="130" cy="180" r="5" fill="#164449"/>
<circle cx="155" cy="180" r="5" fill="#164449"/>
<circle cx="180" cy="180" r="5" fill="#164449"/>
<circle cx="205" cy="180" r="5" fill="#164449"/>
<circle cx="230" cy="180" r="5" fill="#164449"/>
<circle cx="255" cy="180" r="5" fill="#164449"/>
<circle cx="280" cy="180" r="5" fill="#164449"/>
<circle cx="305" cy="180" r="5" fill="#164449"/>
<circle cx="330" cy="180" r="5" fill="#164449"/>
<circle cx="355" cy="180" r="5" fill="#164449"/>
<circle cx="5" cy="205" r="5" fill="#164449"/>
<circle cx="30" cy="205" r="5" fill="#164449"/>
<circle cx="55" cy="205" r="5" fill="#164449"/>
<circle cx="80" cy="205" r="5" fill="#164449"/>
<circle cx="105" cy="205" r="5" fill="#164449"/>
<circle cx="130" cy="205" r="5" fill="#164449"/>
<circle cx="155" cy="205" r="5" fill="#164449"/>
<circle cx="180" cy="205" r="5" fill="#164449"/>
<circle cx="205" cy="205" r="5" fill="#164449"/>
<circle cx="230" cy="205" r="5" fill="#164449"/>
<circle cx="255" cy="205" r="5" fill="#164449"/>
<circle cx="280" cy="205" r="5" fill="#164449"/>
<circle cx="305" cy="205" r="5" fill="#164449"/>
<circle cx="330" cy="205" r="5" fill="#164449"/>
<circle cx="355" cy="205" r="5" fill="#164449"/>
<circle cx="5" cy="230" r="5" fill="#164449"/>
<circle cx="30" cy="230" r="5" fill="#164449"/>
<circle cx="55" cy="230" r="5" fill="#164449"/>
<circle cx="80" cy="230" r="5" fill="#164449"/>
<circle cx="105" cy="230" r="5" fill="#164449"/>
<circle cx="130" cy="230" r="5" fill="#164449"/>
<circle cx="155" cy="230" r="5" fill="#164449"/>
<circle cx="180" cy="230" r="5" fill="#164449"/>
<circle cx="205" cy="230" r="5" fill="#164449"/>
<circle cx="230" cy="230" r="5" fill="#164449"/>
<circle cx="255" cy="230" r="5" fill="#164449"/>
<circle cx="280" cy="230" r="5" fill="#164449"/>
<circle cx="305" cy="230" r="5" fill="#164449"/>
<circle cx="330" cy="230" r="5" fill="#164449"/>
<circle cx="355" cy="230" r="5" fill="#164449"/>
</svg>
