<svg width="115" height="360" viewBox="0 0 115 360" fill="none" xmlns="http://www.w3.org/2000/svg">
<circle cx="10" cy="355" r="5" transform="rotate(-90 10 355)" fill="#164449"/>
<circle cx="10" cy="330" r="5" transform="rotate(-90 10 330)" fill="#164449"/>
<circle cx="10" cy="305" r="5" transform="rotate(-90 10 305)" fill="#164449"/>
<circle cx="10" cy="280" r="5" transform="rotate(-90 10 280)" fill="#164449"/>
<circle cx="10" cy="255" r="5" transform="rotate(-90 10 255)" fill="#164449"/>
<circle cx="10" cy="230" r="5" transform="rotate(-90 10 230)" fill="#164449"/>
<circle cx="10" cy="205" r="5" transform="rotate(-90 10 205)" fill="#164449"/>
<circle cx="10" cy="180" r="5" transform="rotate(-90 10 180)" fill="#164449"/>
<circle cx="10" cy="155" r="5" transform="rotate(-90 10 155)" fill="#164449"/>
<circle cx="10" cy="130" r="5" transform="rotate(-90 10 130)" fill="#164449"/>
<circle cx="10" cy="105" r="5" transform="rotate(-90 10 105)" fill="#164449"/>
<circle cx="10" cy="80" r="5" transform="rotate(-90 10 80)" fill="#164449"/>
<circle cx="10" cy="55" r="5" transform="rotate(-90 10 55)" fill="#164449"/>
<circle cx="10" cy="30" r="5" transform="rotate(-90 10 30)" fill="#164449"/>
<circle cx="10" cy="5" r="5" transform="rotate(-90 10 5)" fill="#164449"/>
<circle cx="35" cy="355" r="5" transform="rotate(-90 35 355)" fill="#164449"/>
<circle cx="35" cy="330" r="5" transform="rotate(-90 35 330)" fill="#164449"/>
<circle cx="35" cy="305" r="5" transform="rotate(-90 35 305)" fill="#164449"/>
<circle cx="35" cy="280" r="5" transform="rotate(-90 35 280)" fill="#164449"/>
<circle cx="35" cy="255" r="5" transform="rotate(-90 35 255)" fill="#164449"/>
<circle cx="35" cy="230" r="5" transform="rotate(-90 35 230)" fill="#164449"/>
<circle cx="35" cy="205" r="5" transform="rotate(-90 35 205)" fill="#164449"/>
<circle cx="35" cy="180" r="5" transform="rotate(-90 35 180)" fill="#164449"/>
<circle cx="35" cy="155" r="5" transform="rotate(-90 35 155)" fill="#164449"/>
<circle cx="35" cy="130" r="5" transform="rotate(-90 35 130)" fill="#164449"/>
<circle cx="35" cy="105" r="5" transform="rotate(-90 35 105)" fill="#164449"/>
<circle cx="35" cy="80" r="5" transform="rotate(-90 35 80)" fill="#164449"/>
<circle cx="35" cy="55" r="5" transform="rotate(-90 35 55)" fill="#164449"/>
<circle cx="35" cy="30" r="5" transform="rotate(-90 35 30)" fill="#164449"/>
<circle cx="35" cy="5" r="5" transform="rotate(-90 35 5)" fill="#164449"/>
<circle cx="60" cy="355" r="5" transform="rotate(-90 60 355)" fill="#164449"/>
<circle cx="60" cy="330" r="5" transform="rotate(-90 60 330)" fill="#164449"/>
<circle cx="60" cy="305" r="5" transform="rotate(-90 60 305)" fill="#164449"/>
<circle cx="60" cy="280" r="5" transform="rotate(-90 60 280)" fill="#164449"/>
<circle cx="60" cy="255" r="5" transform="rotate(-90 60 255)" fill="#164449"/>
<circle cx="60" cy="230" r="5" transform="rotate(-90 60 230)" fill="#164449"/>
<circle cx="60" cy="205" r="5" transform="rotate(-90 60 205)" fill="#164449"/>
<circle cx="60" cy="180" r="5" transform="rotate(-90 60 180)" fill="#164449"/>
<circle cx="60" cy="155" r="5" transform="rotate(-90 60 155)" fill="#164449"/>
<circle cx="60" cy="130" r="5" transform="rotate(-90 60 130)" fill="#164449"/>
<circle cx="60" cy="105" r="5" transform="rotate(-90 60 105)" fill="#164449"/>
<circle cx="60" cy="80" r="5" transform="rotate(-90 60 80)" fill="#164449"/>
<circle cx="60" cy="55" r="5" transform="rotate(-90 60 55)" fill="#164449"/>
<circle cx="60" cy="30" r="5" transform="rotate(-90 60 30)" fill="#164449"/>
<circle cx="60" cy="5" r="5" transform="rotate(-90 60 5)" fill="#164449"/>
<circle cx="85" cy="355" r="5" transform="rotate(-90 85 355)" fill="#164449"/>
<circle cx="85" cy="330" r="5" transform="rotate(-90 85 330)" fill="#164449"/>
<circle cx="85" cy="305" r="5" transform="rotate(-90 85 305)" fill="#164449"/>
<circle cx="85" cy="280" r="5" transform="rotate(-90 85 280)" fill="#164449"/>
<circle cx="85" cy="255" r="5" transform="rotate(-90 85 255)" fill="#164449"/>
<circle cx="85" cy="230" r="5" transform="rotate(-90 85 230)" fill="#164449"/>
<circle cx="85" cy="205" r="5" transform="rotate(-90 85 205)" fill="#164449"/>
<circle cx="85" cy="180" r="5" transform="rotate(-90 85 180)" fill="#164449"/>
<circle cx="85" cy="155" r="5" transform="rotate(-90 85 155)" fill="#164449"/>
<circle cx="85" cy="130" r="5" transform="rotate(-90 85 130)" fill="#164449"/>
<circle cx="85" cy="105" r="5" transform="rotate(-90 85 105)" fill="#164449"/>
<circle cx="85" cy="80" r="5" transform="rotate(-90 85 80)" fill="#164449"/>
<circle cx="85" cy="55" r="5" transform="rotate(-90 85 55)" fill="#164449"/>
<circle cx="85" cy="30" r="5" transform="rotate(-90 85 30)" fill="#164449"/>
<circle cx="85" cy="5" r="5" transform="rotate(-90 85 5)" fill="#164449"/>
<circle cx="110" cy="355" r="5" transform="rotate(-90 110 355)" fill="#164449"/>
<circle cx="110" cy="330" r="5" transform="rotate(-90 110 330)" fill="#164449"/>
<circle cx="110" cy="305" r="5" transform="rotate(-90 110 305)" fill="#164449"/>
<circle cx="110" cy="280" r="5" transform="rotate(-90 110 280)" fill="#164449"/>
<circle cx="110" cy="255" r="5" transform="rotate(-90 110 255)" fill="#164449"/>
<circle cx="110" cy="230" r="5" transform="rotate(-90 110 230)" fill="#164449"/>
<circle cx="110" cy="205" r="5" transform="rotate(-90 110 205)" fill="#164449"/>
<circle cx="110" cy="180" r="5" transform="rotate(-90 110 180)" fill="#164449"/>
<circle cx="110" cy="155" r="5" transform="rotate(-90 110 155)" fill="#164449"/>
<circle cx="110" cy="130" r="5" transform="rotate(-90 110 130)" fill="#164449"/>
<circle cx="110" cy="105" r="5" transform="rotate(-90 110 105)" fill="#164449"/>
<circle cx="110" cy="80" r="5" transform="rotate(-90 110 80)" fill="#164449"/>
<circle cx="110" cy="55" r="5" transform="rotate(-90 110 55)" fill="#164449"/>
<circle cx="110" cy="30" r="5" transform="rotate(-90 110 30)" fill="#164449"/>
<circle cx="110" cy="5" r="5" transform="rotate(-90 110 5)" fill="#164449"/>
</svg>
