<svg width="293" height="113" viewBox="0 0 293 113" fill="none" xmlns="http://www.w3.org/2000/svg">
<circle cx="6.5" cy="102.5" r="10.5" transform="rotate(-90 6.5 102.5)" fill="#4DD996"/>
<circle cx="6.5" cy="56.5" r="10.5" transform="rotate(-90 6.5 56.5)" fill="#4DD996"/>
<circle cx="6.5" cy="10.5" r="10.5" transform="rotate(-90 6.5 10.5)" fill="#4DD996"/>
<circle cx="52.5" cy="102.5" r="10.5" transform="rotate(-90 52.5 102.5)" fill="#4DD996"/>
<circle cx="52.5" cy="56.5" r="10.5" transform="rotate(-90 52.5 56.5)" fill="#4DD996"/>
<circle cx="52.5" cy="10.5" r="10.5" transform="rotate(-90 52.5 10.5)" fill="#4DD996"/>
<circle cx="98.5" cy="102.5" r="10.5" transform="rotate(-90 98.5 102.5)" fill="#4DD996"/>
<circle cx="98.5" cy="56.5" r="10.5" transform="rotate(-90 98.5 56.5)" fill="#4DD996"/>
<circle cx="98.5" cy="10.5" r="10.5" transform="rotate(-90 98.5 10.5)" fill="#4DD996"/>
<circle cx="144.5" cy="102.5" r="10.5" transform="rotate(-90 144.5 102.5)" fill="#4DD996"/>
<circle cx="144.5" cy="56.5" r="10.5" transform="rotate(-90 144.5 56.5)" fill="#4DD996"/>
<circle cx="144.5" cy="10.5" r="10.5" transform="rotate(-90 144.5 10.5)" fill="#4DD996"/>
<circle cx="190.5" cy="102.5" r="10.5" transform="rotate(-90 190.5 102.5)" fill="#4DD996"/>
<circle cx="190.5" cy="56.5" r="10.5" transform="rotate(-90 190.5 56.5)" fill="#4DD996"/>
<circle cx="190.5" cy="10.5" r="10.5" transform="rotate(-90 190.5 10.5)" fill="#4DD996"/>
<circle cx="236.5" cy="102.5" r="10.5" transform="rotate(-90 236.5 102.5)" fill="#4DD996"/>
<circle cx="236.5" cy="56.5" r="10.5" transform="rotate(-90 236.5 56.5)" fill="#4DD996"/>
<circle cx="236.5" cy="10.5" r="10.5" transform="rotate(-90 236.5 10.5)" fill="#4DD996"/>
<circle cx="282.5" cy="102.5" r="10.5" transform="rotate(-90 282.5 102.5)" fill="#4DD996"/>
<circle cx="282.5" cy="56.5" r="10.5" transform="rotate(-90 282.5 56.5)" fill="#4DD996"/>
<circle cx="282.5" cy="10.5" r="10.5" transform="rotate(-90 282.5 10.5)" fill="#4DD996"/>
</svg>
