<svg xmlns="http://www.w3.org/2000/svg" viewBox="0 0 200 200"><g id="favicon"><circle cx="100" cy="100" r="100" fill="#2d302d"/><path d="M155.6934,81.2957,145.2248,92.5a81.6076,81.6076,0,0,1-8.0006,7.4855l-17.7553,14.5055a148.82,148.82,0,0,0-16.89,16.6231L81.296,155.6931c-9.6273,9.6273-25.6847,9.1788-35.8653-1.0018h0c-10.1806-10.1806-10.6291-26.2381-1.0018-35.8654l13.1559-11.74q3.166-2.8254,6.0691-5.9253L86.6149,76.64l13.16-11.2184a98.1268,98.1268,0,0,0,13.0091-13.43l6.0417-7.5621c9.6273-9.6273,25.6848-9.1788,35.8654,1.0018h0C164.8719,55.6111,165.3206,71.6685,155.6934,81.2957Z" fill="#c607d1"/></g></svg>