<svg width="64" height="64" viewBox="0 0 64 64" fill="none" xmlns="http://www.w3.org/2000/svg">
<g clip-path="url(#clip0)">
<path d="M50.5922 2.29099L32.0002 20.884C25.8032 14.689 19.6042 8.48799 13.4062 2.29099C6.23623 -4.87901 -4.87777 6.23899 2.28623 13.411C8.48523 19.604 14.6862 25.806 20.8782 32.003C14.6834 38.2028 8.48606 44.4002 2.28623 50.595C-4.87777 57.763 6.23723 68.878 13.4062 61.715C19.6032 55.516 25.8022 49.316 31.9992 43.121L50.5912 61.715C57.7612 68.883 68.8782 57.764 61.7112 50.595C55.5122 44.396 49.3152 38.199 43.1142 32.001C49.3142 25.802 55.5112 19.603 61.7112 13.405C68.8792 6.23898 57.7622 -4.87901 50.5912 2.29499" />
</g>
<defs>
<clipPath id="clip0">
<rect width="64" height="64" fill="white"/>
</clipPath>
</defs>
</svg>
