<svg width="34" height="33" viewBox="0 0 34 33" fill="none" xmlns="http://www.w3.org/2000/svg">
<path fill-rule="evenodd" clip-rule="evenodd" d="M17 33C26.1127 33 33.5 25.6127 33.5 16.5C33.5 7.3873 26.1127 0 17 0C7.8873 0 0.5 7.3873 0.5 16.5C0.5 25.6127 7.8873 33 17 33ZM18.7288 17.4913V27.6338H14.6302V17.4838H11.2234V13.5127H14.6228V10.5984C14.6228 7.20888 16.6993 5.36253 19.7237 5.36253C20.7435 5.35857 21.7627 5.41103 22.7767 5.5197V9.06018H20.6927C19.0481 9.06018 18.7288 9.84476 18.7288 10.9907V13.5201H22.6591L22.1505 17.4913H18.7288Z" fill="#616765"/>
</svg>
