<svg width="34" height="33" viewBox="0 0 34 33" fill="none" xmlns="http://www.w3.org/2000/svg">
<path fill-rule="evenodd" clip-rule="evenodd" d="M16.75 33C25.8627 33 33.25 25.6127 33.25 16.5C33.25 7.3873 25.8627 0 16.75 0C7.6373 0 0.25 7.3873 0.25 16.5C0.25 25.6127 7.6373 33 16.75 33ZM11.943 16.4996C11.943 13.8394 14.0899 11.6926 16.75 11.6926C19.4102 11.6926 21.5571 13.8394 21.5571 16.4996C21.5571 19.1598 19.4102 21.3066 16.75 21.3066C14.0899 21.3066 11.943 19.1598 11.943 16.4996ZM13.6258 16.4996C13.6258 18.2199 15.0297 19.6238 16.75 19.6238C18.4704 19.6238 19.8743 18.2199 19.8743 16.4996C19.8743 14.7793 18.4704 13.3754 16.75 13.3754C15.0297 13.3754 13.6258 14.7793 13.6258 16.4996ZM20.6313 11.498C20.6313 10.8769 21.1329 10.3754 21.754 10.3754C21.9014 10.3752 22.0475 10.4041 22.1838 10.4605C22.3201 10.5168 22.4439 10.5995 22.5482 10.7038C22.6525 10.8081 22.7352 10.9319 22.7915 11.0682C22.8479 11.2045 22.8768 11.3506 22.8766 11.498C22.8766 12.1215 22.375 12.6207 21.754 12.6207C21.1329 12.6207 20.6313 12.1191 20.6313 11.498ZM26.1207 16.0264C26.1205 16.184 26.1204 16.3417 26.1204 16.4996C26.1204 16.6762 26.1206 16.8526 26.1209 17.0288C26.1225 18.1435 26.1242 19.2517 26.0594 20.3668C25.9868 21.8668 25.6469 23.1957 24.5477 24.2949C23.4508 25.3918 22.1196 25.734 20.6196 25.8066C19.4858 25.8704 18.3592 25.8692 17.2256 25.8679C17.068 25.8677 16.9103 25.8676 16.7524 25.8676C16.5948 25.8676 16.4373 25.8677 16.28 25.8679C15.1479 25.8692 14.0211 25.8704 12.8852 25.8066C11.3852 25.734 10.0563 25.3941 8.95708 24.2949C7.8602 23.198 7.51801 21.8668 7.44536 20.3668C7.38157 19.233 7.38282 18.1045 7.38407 16.972C7.38424 16.8146 7.38442 16.6572 7.38442 16.4996C7.38442 16.342 7.38424 16.1846 7.38407 16.0272C7.38282 14.8951 7.38157 13.7683 7.44536 12.6324C7.51801 11.1324 7.85786 9.80351 8.95708 8.70429C10.054 7.60742 11.3852 7.26523 12.8852 7.19257C14.019 7.12879 15.1455 7.13003 16.2791 7.13129C16.4367 7.13146 16.5945 7.13164 16.7524 7.13164C16.91 7.13164 17.0674 7.13146 17.2248 7.13129C18.3569 7.13003 19.4837 7.12878 20.6196 7.19257C22.1196 7.26523 23.4485 7.60507 24.5477 8.70429C25.6446 9.80117 25.9868 11.1324 26.0594 12.6324C26.1232 13.7662 26.122 14.8928 26.1207 16.0264ZM23.35 23.0996C23.6805 22.7715 23.8868 22.4527 24.0579 22.0262C24.4791 20.9659 24.4566 18.6523 24.4421 17.1562C24.4397 16.9127 24.4375 16.6909 24.4375 16.4996C24.4375 16.3078 24.4397 16.0851 24.4421 15.8407C24.4567 14.344 24.4793 12.0304 24.0602 10.9707C23.8891 10.5441 23.6829 10.2277 23.3524 9.89726C23.0243 9.56679 22.7055 9.36054 22.2789 9.18945C21.2192 8.77039 18.9056 8.79295 17.409 8.80755C17.1645 8.80993 16.9419 8.8121 16.75 8.8121C16.5582 8.8121 16.3356 8.80993 16.0911 8.80755C14.5944 8.79295 12.2809 8.77039 11.2211 9.18945C10.7946 9.36054 10.4782 9.56914 10.1477 9.89726C9.81723 10.2254 9.61098 10.5441 9.43989 10.9707C9.02083 12.0304 9.04339 14.344 9.05799 15.8407C9.06037 16.0851 9.06254 16.3078 9.06254 16.4996C9.06254 16.6915 9.06037 16.9141 9.05799 17.1585C9.04339 18.6547 9.02084 20.9668 9.43989 22.0285C9.61098 22.4551 9.81723 22.7715 10.1477 23.1019C10.4758 23.4324 10.7946 23.6387 11.2211 23.8098C12.2809 24.2288 14.5944 24.2063 16.0911 24.1917C16.3355 24.1893 16.5582 24.1871 16.75 24.1871C16.9413 24.1871 17.1632 24.1893 17.4067 24.1916C18.9028 24.2062 21.2164 24.2287 22.2766 23.8074C22.7032 23.6363 23.0196 23.4301 23.35 23.0996Z" fill="#616765"/>
</svg>
