<svg width="33" height="33" viewBox="0 0 33 33" fill="none" xmlns="http://www.w3.org/2000/svg">
<path d="M16.5 0C7.38719 0 0 7.38719 0 16.5C0 25.6128 7.38719 33 16.5 33C25.6128 33 33 25.6128 33 16.5C33 7.38719 25.6128 0 16.5 0ZM12.4609 23.3389H9.11969V12.5864H12.4609V23.3389ZM10.7697 11.2664C9.71437 11.2664 9.03203 10.5187 9.03203 9.59406C9.03203 8.65047 9.735 7.92516 10.8127 7.92516C11.8903 7.92516 12.5503 8.65047 12.5709 9.59406C12.5709 10.5187 11.8903 11.2664 10.7697 11.2664ZM24.6641 23.3389H21.3228V17.38C21.3228 15.993 20.8381 15.0511 19.6298 15.0511C18.7069 15.0511 18.1586 15.6887 17.9163 16.3023C17.8269 16.5206 17.8045 16.83 17.8045 17.1377V23.3372H14.4616V16.0153C14.4616 14.673 14.4186 13.5506 14.3739 12.5847H17.2769L17.4298 14.0783H17.4969C17.9369 13.377 19.0145 12.3423 20.8175 12.3423C23.0158 12.3423 24.6641 13.8153 24.6641 16.9812V23.3389V23.3389Z" />
</svg>
