<svg width="20" height="27" viewBox="0 0 20 27" fill="none" xmlns="http://www.w3.org/2000/svg">
<path d="M10 6C9.20888 6 8.43552 6.2346 7.77772 6.67412C7.11992 7.11365 6.60723 7.73836 6.30448 8.46927C6.00173 9.20017 5.92252 10.0044 6.07686 10.7804C6.2312 11.5563 6.61217 12.269 7.17158 12.8284C7.73099 13.3878 8.44372 13.7688 9.21964 13.9231C9.99556 14.0775 10.7998 13.9983 11.5307 13.6955C12.2616 13.3928 12.8864 12.8801 13.3259 12.2223C13.7654 11.5645 14 10.7911 14 10C13.9986 8.93957 13.5767 7.92297 12.8269 7.17313C12.077 6.42329 11.0604 6.00141 10 6ZM10 12C9.60444 12 9.21776 11.8827 8.88886 11.6629C8.55996 11.4432 8.30362 11.1308 8.15224 10.7654C8.00087 10.3999 7.96126 9.99778 8.03843 9.60982C8.1156 9.22186 8.30608 8.86549 8.58579 8.58579C8.86549 8.30608 9.22186 8.1156 9.60982 8.03843C9.99778 7.96126 10.3999 8.00086 10.7654 8.15224C11.1308 8.30362 11.4432 8.55996 11.6629 8.88886C11.8827 9.21776 12 9.60444 12 10C11.9993 10.5302 11.7884 11.0385 11.4134 11.4134C11.0385 11.7884 10.5302 11.9993 10 12Z" fill="#4BB98B"/>
<path d="M19.9484 8.99407C19.4051 3.91844 15.1598 1.03637e-07 10.0019 1.03637e-07C8.19702 -0.000260171 6.42569 0.489726 4.87579 1.418C3.32588 2.34627 2.05518 3.67821 1.19844 5.27259C0.341699 6.86696 -0.0691375 8.66431 0.00949738 10.474C0.0881323 12.2838 0.653307 14.0384 1.64509 15.5519L1.62178 15.5137L8.57416 26.2251C8.72876 26.4625 8.93971 26.6575 9.18805 26.7928C9.43639 26.9281 9.71433 26.9993 9.99687 27C10.2794 27.0007 10.5577 26.931 10.8068 26.797C11.0558 26.663 11.2677 26.4691 11.4236 26.2325L11.4272 26.2263L18.3796 15.515C19.4421 13.8845 20.0054 11.9775 20 10.0294C20 9.66499 19.9803 9.30553 19.9435 8.95098L19.9472 8.9953L19.9484 8.99407ZM16.8402 14.5055L10.0032 25.0396L3.16607 14.5055C2.15159 12.9294 1.70432 11.0526 1.89841 9.18639C2.0925 7.32015 2.9163 5.57655 4.23322 4.24467C5.71005 2.76248 7.74988 1.84535 10.0032 1.84535C12.2564 1.84535 14.2963 2.76248 15.7731 4.24467C17.09 5.57655 17.9138 7.32015 18.1079 9.18639C18.302 11.0526 17.8547 12.9294 16.8402 14.5055Z" fill="#4BB98B"/>
</svg>
