<svg id="Layer_1" data-name="Layer 1" xmlns="http://www.w3.org/2000/svg" viewBox="0 0 306.0112 112.7577"><defs><style>.cls-1{fill:none;}.cls-2{fill:#333;}</style></defs><title>Logo 1 copy</title><g id="Logo_Variant" data-name="Logo Variant"><polygon class="cls-1" points="141.658 43.916 138.563 66.668 144.754 66.668 141.658 43.916"/><path class="cls-1" d="M54.8267,37.652a3.8588,3.8588,0,0,0-2.9522-1.0078,3.651,3.651,0,0,0-2.8081,1.0078,5.0028,5.0028,0,0,0-1.2236,2.5562,17.8646,17.8646,0,0,0-.2881,3.2758V71.5646a20.4671,20.4671,0,0,0,.252,3.24,4.9538,4.9538,0,0,0,1.1518,2.5918,3.7281,3.7281,0,0,0,2.916,1.0078,3.8532,3.8532,0,0,0,2.9522-1.0078,5.0446,5.0446,0,0,0,1.2241-2.5918,18.1725,18.1725,0,0,0,.2876-3.24V43.484a17.998,17.998,0,0,0-.2876-3.2758A5.0232,5.0232,0,0,0,54.8267,37.652Z"/><polygon class="cls-2" points="23.445 94.917 23.445 28.364 10.851 28.364 10.851 104.962 69.515 104.962 69.515 94.917 23.445 94.917"/><rect class="cls-2" x="75.3457" y="94.917" width="223.4919" height="10.0452"/><path class="cls-2" d="M62.3506,29.84q-3.8525-2.2676-10.4761-2.2676-6.5521,0-10.3681,2.2676a12.73,12.73,0,0,0-5.4717,6.5161A28.3842,28.3842,0,0,0,34.3785,46.652V68.3244A28.74,28.74,0,0,0,36.0347,78.62a12.8754,12.8754,0,0,0,5.4717,6.624q3.8158,2.3042,10.3681,2.3037,6.6234,0,10.4761-2.3037a12.8366,12.8366,0,0,0,5.5078-6.624,28.7621,28.7621,0,0,0,1.6563-10.2959V46.652a28.4055,28.4055,0,0,0-1.6563-10.2959A12.6929,12.6929,0,0,0,62.3506,29.84ZM56.3384,71.5646a18.1725,18.1725,0,0,1-.2876,3.24,5.0446,5.0446,0,0,1-1.2241,2.5918,3.8532,3.8532,0,0,1-2.9522,1.0078,3.7281,3.7281,0,0,1-2.916-1.0078,4.9538,4.9538,0,0,1-1.1518-2.5918,20.4671,20.4671,0,0,1-.252-3.24V43.484a17.8646,17.8646,0,0,1,.2881-3.2758,5.0028,5.0028,0,0,1,1.2236-2.5562,3.651,3.651,0,0,1,2.8081-1.0078,3.8588,3.8588,0,0,1,2.9522,1.0078,5.0232,5.0232,0,0,1,1.2241,2.5562,17.998,17.998,0,0,1,.2876,3.2758Z"/><polygon class="cls-2" points="102.347 28.436 93.778 28.436 89.387 62.349 85.931 28.364 74.986 28.364 82.043 86.685 93.418 86.685 98.099 51.476 103.066 86.685 114.298 86.685 121.283 28.364 110.482 28.364 106.955 62.133 102.347 28.436"/><path class="cls-2" d="M123.2266,86.6847h12.168L137.41,74.3722h8.5684l1.9438,12.3125h11.88L148.93,28.3644h-14.688Zm18.4316-42.7685,3.0962,22.7519h-6.1919Z"/><polygon class="cls-2" points="197.256 10.032 197.256 20.132 211.645 20.078 211.683 87.125 224.643 87.125 224.604 20.078 298.838 20.078 298.838 10.032 197.256 10.032"/><polygon class="cls-2" points="165.48 86.685 177.444 86.685 177.444 20.132 191.256 20.132 191.256 10.032 10.851 10.032 10.851 20.132 165.48 20.132 165.48 86.685"/><polygon class="cls-2" points="256.574 37.589 256.574 28.805 230.366 28.805 230.366 87.125 256.719 87.125 256.719 78.413 243.254 78.413 243.254 60.989 253.406 60.989 253.406 52.061 243.254 52.061 243.254 37.589 256.574 37.589"/><path class="cls-2" d="M295.2732,55.4807a11.9442,11.9442,0,0,0,2.124-4.86,32.0955,32.0955,0,0,0,.5762-6.4082q0-6.1186-2.4121-9.4678a12.4005,12.4005,0,0,0-6.7324-4.644,35.7724,35.7724,0,0,0-10.2237-1.2959H262.55v58.32h12.8877V60.9885h3.6719l6.4082,26.1368h13.32l-7.9922-28.2246A11.6789,11.6789,0,0,0,295.2732,55.4807Zm-9.8642-5.688a5.1525,5.1525,0,0,1-2.1241,2.8082,7.8382,7.8382,0,0,1-4.248.9721h-3.6V37.4446h4.1758q3.6723,0,5.04,2.0884a10.5973,10.5973,0,0,1,1.3682,5.832A14.1115,14.1115,0,0,1,285.409,49.7927Z"/><circle class="cls-2" cx="190.109" cy="31.137" r="2.4799"/><circle class="cls-2" cx="198.6115" cy="31.137" r="2.4799"/><circle class="cls-2" cx="190.109" cy="39.6394" r="2.4799"/><circle class="cls-2" cx="198.6115" cy="39.6394" r="2.4799"/><circle class="cls-2" cx="190.109" cy="48.1418" r="2.4799"/><circle class="cls-2" cx="198.6115" cy="48.1418" r="2.4799"/><circle class="cls-2" cx="190.109" cy="56.6442" r="2.4799"/><circle class="cls-2" cx="198.6115" cy="56.6442" r="2.4799"/><circle class="cls-2" cx="190.109" cy="65.1466" r="2.4799"/><circle class="cls-2" cx="198.6115" cy="65.1466" r="2.4799"/><circle class="cls-2" cx="190.109" cy="73.649" r="2.4799"/><circle class="cls-2" cx="198.6115" cy="73.649" r="2.4799"/><circle class="cls-2" cx="190.109" cy="82.1514" r="2.4799"/><circle class="cls-2" cx="198.6115" cy="82.1514" r="2.4799"/></g></svg>