<svg id="Layer_1" data-name="Layer 1" xmlns="http://www.w3.org/2000/svg" viewBox="0 0 287.987 94.9302"><defs><style>.cls-1{fill:#2d302d;}</style></defs><g id="Logo_Variant" data-name="Logo Variant"><polygon class="cls-1" points="12.594 84.885 12.594 18.332 0 18.332 0 94.93 58.664 94.93 58.664 84.885 12.594 84.885"/><rect class="cls-1" x="64.4947" y="84.885" width="223.4919" height="10.0452"/><path class="cls-1" d="M62.3506,29.84q-3.8525-2.2676-10.4761-2.2676-6.5521,0-10.3681,2.2676a12.73,12.73,0,0,0-5.4717,6.5161A28.3844,28.3844,0,0,0,34.3785,46.652V68.3244A28.7384,28.7384,0,0,0,36.0347,78.62a12.8755,12.8755,0,0,0,5.4717,6.624q3.8158,2.3042,10.3681,2.3037,6.6234,0,10.4761-2.3037a12.8367,12.8367,0,0,0,5.5078-6.624,28.7628,28.7628,0,0,0,1.6563-10.2959V46.652a28.4062,28.4062,0,0,0-1.6563-10.2959A12.693,12.693,0,0,0,62.3506,29.84ZM56.3384,71.5646a18.1725,18.1725,0,0,1-.2876,3.24,5.044,5.044,0,0,1-1.2241,2.5918,3.8532,3.8532,0,0,1-2.9522,1.0078,3.7283,3.7283,0,0,1-2.916-1.0078,4.9538,4.9538,0,0,1-1.1518-2.5918,20.4732,20.4732,0,0,1-.252-3.24V43.484a17.867,17.867,0,0,1,.2881-3.2758,5.0032,5.0032,0,0,1,1.2236-2.5562,3.651,3.651,0,0,1,2.8081-1.0078,3.8591,3.8591,0,0,1,2.9522,1.0078,5.0233,5.0233,0,0,1,1.2241,2.5562,18.0006,18.0006,0,0,1,.2876,3.2758Z" transform="translate(-10.851 -10.032)"/><polygon class="cls-1" points="91.496 18.404 82.927 18.404 78.536 52.317 75.08 18.332 64.135 18.332 71.192 76.653 82.567 76.653 87.248 41.444 92.215 76.653 103.447 76.653 110.432 18.332 99.631 18.332 96.104 52.101 91.496 18.404"/><path class="cls-1" d="M123.2266,86.6847h12.168L137.41,74.3722h8.5684l1.9438,12.3125h11.88L148.93,28.3644H134.242Zm18.4316-42.7685,3.0962,22.7519h-6.1919Z" transform="translate(-10.851 -10.032)"/><polygon class="cls-1" points="186.405 0 186.405 10.1 200.794 10.046 200.832 77.093 213.792 77.093 213.753 10.046 287.987 10.046 287.987 0 186.405 0"/><polygon class="cls-1" points="154.629 76.653 166.593 76.653 166.593 10.1 180.405 10.1 180.405 0 0 0 0 10.1 154.629 10.1 154.629 76.653"/><polygon class="cls-1" points="245.723 27.557 245.723 18.773 219.515 18.773 219.515 77.093 245.868 77.093 245.868 68.381 232.403 68.381 232.403 50.957 242.555 50.957 242.555 42.029 232.403 42.029 232.403 27.557 245.723 27.557"/><path class="cls-1" d="M295.2732,55.4807a11.9434,11.9434,0,0,0,2.124-4.86,32.0947,32.0947,0,0,0,.5762-6.4082q0-6.1186-2.4121-9.4678a12.4008,12.4008,0,0,0-6.7324-4.644,35.7693,35.7693,0,0,0-10.2237-1.2959H262.55v58.32h12.8877V60.9885H279.11l6.4082,26.1368h13.32l-7.9922-28.2246A11.6791,11.6791,0,0,0,295.2732,55.4807Zm-9.8642-5.688a5.1525,5.1525,0,0,1-2.1241,2.8082,7.8382,7.8382,0,0,1-4.248.9721h-3.6V37.4446h4.1758q3.6723,0,5.04,2.0884a10.597,10.597,0,0,1,1.3682,5.832A14.11,14.11,0,0,1,285.409,49.7927Z" transform="translate(-10.851 -10.032)"/></g></svg>