<svg id="Layer_1" data-name="Layer 1" xmlns="http://www.w3.org/2000/svg" viewBox="0 0 47.2222 47.2222"><path d="M23.6111,0A23.6111,23.6111,0,1,0,47.2222,23.6111,23.611,23.611,0,0,0,23.6111,0ZM9.49,12.9869l13.99-5.015,13.99,5.015v1.5838l-13.99-5.0152L9.49,14.5707Zm3.2994,4.0913-1.5837-1.4517H35.753l-1.5837,1.4517Zm21.38,1.7157v10.69H32.5856v-10.69Zm-3.2994,0v10.69H29.2861v-10.69Zm-3.3,0v10.69H25.9867v-10.69Zm-3.2994,0v10.69H22.6873v-10.69Zm-3.2994,0v10.69H19.3879v-10.69Zm-3.2994,0v10.69H16.0884v-10.69Zm-3.2995,0v10.69H12.789v-10.69ZM35.885,31.2v1.5837H11.0733V31.2Zm1.7157,4.8831H9.49V34.4992H37.6007Z" /></svg>