<svg width="124" height="116" viewBox="0 0 124 116" fill="none" xmlns="http://www.w3.org/2000/svg">
<g clip-path="url(#clip0)">
<path d="M25.9092 20.0957H23.1055V39.7539H25.9092V20.0957Z" fill="#1E64C8"/>
<path d="M20.3015 20.0957H17.498V39.7539H20.3015V20.0957Z" fill="#1E64C8"/>
<path d="M14.6943 20.0957H11.8906V39.7539H14.6943V20.0957Z" fill="#1E64C8"/>
<path d="M9.08741 20.0957H6.28369V39.7539H9.08741V20.0957Z" fill="#1E64C8"/>
<path d="M31.5164 20.0957H28.7129V39.7539H31.5164V20.0957Z" fill="#1E64C8"/>
<path d="M37.124 20.0957H34.3203V39.7539H37.124V20.0957Z" fill="#1E64C8"/>
<path d="M42.731 20.0957H39.9272V39.7539H42.731V20.0957Z" fill="#1E64C8"/>
<path d="M45.6015 42.7822H3.4126V45.8126H45.6015V42.7822Z" fill="#1E64C8"/>
<path d="M42.7312 17.068H6.28348L3.47998 14.04H45.5347L42.7312 17.068Z" fill="#1E64C8"/>
<path d="M48.4053 48.8384H0.609375V51.8689H48.4053V48.8384Z" fill="#1E64C8"/>
<path d="M48.4059 9.14227L24.5077 0L0.609375 9.14227V12.3572L24.5077 3.2174L48.4059 12.3572V9.14227Z" fill="#1E64C8"/>
<path d="M23.8114 75.6735H17.7725V85.391H14.9668V63.9803H17.7725V73.1051H23.8114V63.9803H26.6172V85.391H23.8114V75.6735Z" fill="#1E64C8"/>
<path d="M85.2512 96.3891C86.2921 96.3612 87.3169 96.671 88.1932 97.2784V94.549C87.1989 94.0347 86.1075 93.777 85.0052 93.7963C84.2738 93.6889 83.5295 93.7547 82.824 93.9892C82.1186 94.2237 81.4688 94.6212 80.9198 95.1542C80.3708 95.6871 79.9358 96.3427 79.6449 97.0755C79.3541 97.8082 79.2144 98.6005 79.2355 99.3975C79.2276 100.53 79.4824 101.647 79.9766 102.646C80.4709 103.646 81.189 104.495 82.0653 105.118L83.6615 106.607C84.2884 107.013 84.8119 107.581 85.1845 108.26C85.5571 108.939 85.7671 109.707 85.7955 110.496C85.7955 112.578 84.5221 113.403 82.6098 113.403C81.4329 113.441 80.2711 113.111 79.2638 112.452V115.229C80.3886 115.792 81.6224 116.055 82.8609 115.995C83.5917 116.1 84.335 116.033 85.0393 115.797C85.7436 115.562 86.3923 115.164 86.9405 114.632C87.4886 114.099 87.9232 113.445 88.2143 112.713C88.5054 111.981 88.646 111.19 88.6264 110.394C88.6347 109.262 88.3801 108.145 87.8857 107.146C87.3913 106.147 86.673 105.298 85.7964 104.677L84.2024 103.185C82.8807 101.964 82.0617 101.082 82.0666 99.3035C82.0707 97.2121 83.3344 96.394 85.2512 96.3891Z" fill="#1E64C8"/>
<path d="M65.2173 94.1909H69.7926C73.4524 94.1909 76.074 95.6755 76.074 100.518C76.1915 101.762 75.9148 103.013 75.2891 104.065C74.6634 105.118 73.7257 105.91 72.6291 106.313L76.838 115.604H73.6347L69.9133 106.873H68.023V115.604H65.2173V94.1909ZM68.023 96.7614V104.307H69.5181C71.7137 104.307 73.1781 103.809 73.1781 100.518C73.1781 97.2548 71.7137 96.7614 69.5181 96.7614H68.023Z" fill="#1E64C8"/>
<path d="M0.609375 109.147V94.1934H3.41512V109.28C3.41512 112.443 4.42186 113.363 6.46479 113.363C8.50773 113.363 9.51424 112.443 9.51424 109.28V94.1934H12.3202V109.147C12.3202 114.022 10.4297 116 6.46479 116C2.43918 116 0.609375 114.089 0.609375 109.147Z" fill="#1E64C8"/>
<path d="M15.9492 94.1934H19.1821L25.4339 111.255C25.1902 109.367 25.0578 107.463 25.0375 105.557V94.1926H27.7214V115.603H24.4885L18.1754 98.476C18.4567 100.383 18.6098 102.31 18.6333 104.241V115.605H15.9492V94.1934Z" fill="#1E64C8"/>
<path d="M31.6934 94.1934H34.4993V115.604H31.6934V94.1934Z" fill="#1E64C8"/>
<path d="M37.1064 94.1934H40.034L42.5347 105.327C42.9014 107.008 43.358 109.839 43.6325 112.08C43.8981 109.807 44.2851 107.552 44.7917 105.327L47.2615 94.1934H50.0983L45.0662 115.604H42.1383L37.1064 94.1934Z" fill="#1E64C8"/>
<path d="M52.7051 94.1934H61.9768V96.7648H55.511V103.319H60.7269V105.854H55.511V113.037H61.9768V115.605H52.7051V94.1934Z" fill="#1E64C8"/>
<path d="M91.9551 94.1934H94.7613V115.604H91.9551V94.1934Z" fill="#1E64C8"/>
<path d="M0 74.6869C0 66.2546 2.07351 63.5843 7.22749 63.5843C8.50138 63.5681 9.76234 63.8615 10.917 64.4429V67.241C9.84508 66.6292 8.65378 66.3017 7.44152 66.2855C4.14836 66.2855 2.89792 67.6038 2.89792 74.6871C2.89792 81.7016 3.78281 83.1505 6.64903 83.1505C7.37971 83.1577 8.10793 83.058 8.81381 82.854V75.7065H5.88487V73.1382H11.6178V84.6985C10.0559 85.4169 8.37567 85.7871 6.67803 85.7868C1.3107 85.787 0 82.7566 0 74.6869Z" fill="#1E64C8"/>
<path d="M30.5889 63.9803H39.8606V66.5509H33.3948V73.1051H38.6106V75.6392H33.3948V82.8219H39.8606V85.391H30.5889V63.9803Z" fill="#1E64C8"/>
<path d="M43.1011 63.9804H46.3337L52.5853 81.0421C52.3417 79.1536 52.2093 77.2503 52.1889 75.3438V63.9797H54.8731V85.391H51.6411L45.3279 68.2631C45.6092 70.1701 45.7621 72.0967 45.7856 74.0277V85.3918H43.1011V63.9804Z" fill="#1E64C8"/>
<path d="M57.4409 63.9803H68.8168V66.5509H64.5164V85.391H61.7107V66.5509H57.4409V63.9803Z" fill="#1E64C8"/>
<path d="M115.336 106.712L109.908 94.1934H112.988L115.336 99.958C115.888 101.318 116.357 102.715 116.739 104.141C117.157 102.719 117.645 101.323 118.203 99.958L120.551 94.1934H123.54L118.142 106.712V115.604H115.336V106.712Z" fill="#1E64C8"/>
<path d="M97.4253 94.1934H108.801V96.7648H104.5V115.605H101.695V96.7648H97.4253V94.1934Z" fill="#1E64C8"/>
</g>
<defs>
<clipPath id="clip0">
<rect width="123.541" height="116" fill="white"/>
</clipPath>
</defs>
</svg>
